<svg xmlns="http://www.w3.org/2000/svg" xmlns:xlink="http://www.w3.org/1999/xlink" width="500" zoomAndPan="magnify" viewBox="0 0 375 374.999991" height="500" preserveAspectRatio="xMidYMid meet" version="1.0"><defs><g/><clipPath id="c2fcc71156"><path d="M 223 139 L 226 139 L 226 193.878906 L 223 193.878906 Z M 223 139 " clip-rule="nonzero"/></clipPath><clipPath id="7a28a6009b"><path d="M 186 156 L 190 156 L 190 193.878906 L 186 193.878906 Z M 186 156 " clip-rule="nonzero"/></clipPath><clipPath id="ee01629307"><path d="M 148 171 L 152 171 L 152 193.878906 L 148 193.878906 Z M 148 171 " clip-rule="nonzero"/></clipPath><clipPath id="1678b490cb"><path d="M 147.8125 109.878906 L 227.3125 109.878906 L 227.3125 193 L 147.8125 193 Z M 147.8125 109.878906 " clip-rule="nonzero"/></clipPath><clipPath id="c49fb2c7c9"><path d="M 218 109.878906 L 227 109.878906 L 227 119 L 218 119 Z M 218 109.878906 " clip-rule="nonzero"/></clipPath></defs><g clip-path="url(#c2fcc71156)"><path stroke-linecap="butt" transform="matrix(1.195679, 0, 0, 1.195679, 148.159404, 109.878962)" fill="none" stroke-linejoin="miter" d="M 63.598796 25.498679 L 63.598796 70.399958 " stroke="#000000" stroke-width="2" stroke-opacity="1" stroke-miterlimit="10"/></g><g clip-path="url(#7a28a6009b)"><path stroke-linecap="butt" transform="matrix(1.195679, 0, 0, 1.195679, 148.159404, 109.878962)" fill="none" stroke-linejoin="miter" d="M 33.300887 70.399958 L 33.300887 39.700211 " stroke="#000000" stroke-width="2" stroke-opacity="1" stroke-miterlimit="10"/></g><g clip-path="url(#ee01629307)"><path stroke-linecap="butt" transform="matrix(1.195679, 0, 0, 1.195679, 148.159404, 109.878962)" fill="none" stroke-linejoin="miter" d="M 1.601446 70.399958 L 1.601446 52.199651 " stroke="#000000" stroke-width="2" stroke-opacity="1" stroke-miterlimit="10"/></g><g clip-path="url(#1678b490cb)"><path stroke-linecap="butt" transform="matrix(1.195679, 0, 0, 1.195679, 148.159404, 109.878962)" fill="none" stroke-linejoin="miter" d="M 0.699762 40.89919 L 21.098742 20.601486 L 33.199611 32.601078 L 62.700379 3.100311 " stroke="#000000" stroke-width="2" stroke-opacity="1" stroke-miterlimit="10"/></g><g clip-path="url(#c49fb2c7c9)"><path fill="#63e6da" d="M 218.226562 109.878906 L 226.835938 118.488281 L 226.835938 109.878906 Z M 218.226562 109.878906 " fill-opacity="1" fill-rule="nonzero"/></g><g fill="#63e6da" fill-opacity="1"><g transform="translate(118.540643, 237.933997)"><g><path d="M 20.71875 -5.597656 C 20.71875 -8.707031 18.058594 -11.199219 15.117188 -11.199219 L 6.71875 -11.199219 C 5.179688 -11.199219 3.917969 -12.457031 3.917969 -14 C 3.917969 -15.539062 5.179688 -16.796875 6.71875 -16.796875 L 15.117188 -16.796875 C 16.660156 -16.796875 17.917969 -15.539062 17.917969 -14 L 20.71875 -14 C 20.632812 -17.105469 18.113281 -19.597656 15.117188 -19.597656 L 6.71875 -19.597656 C 3.582031 -19.597656 1.121094 -16.964844 1.121094 -14 C 1.121094 -10.835938 3.722656 -8.398438 6.71875 -8.398438 L 15.117188 -8.398438 C 16.660156 -8.398438 17.917969 -7.140625 17.917969 -5.597656 C 17.917969 -4.058594 16.660156 -2.800781 15.117188 -2.800781 L 6.71875 -2.800781 C 5.179688 -2.800781 3.917969 -4.058594 3.917969 -5.597656 L 1.121094 -5.597656 C 1.203125 -2.4375 3.667969 0 6.71875 0 L 15.117188 0 C 18.253906 0 20.71875 -2.632812 20.71875 -5.597656 Z M 20.71875 -5.597656 "/></g></g></g><g fill="#63e6da" fill-opacity="1"><g transform="translate(147.349581, 237.933997)"><g><path d="M 18.199219 -11.199219 C 18.199219 -9.660156 16.9375 -8.398438 15.398438 -8.398438 L 4.199219 -8.398438 L 4.199219 -16.796875 L 15.398438 -16.796875 C 16.9375 -16.796875 18.199219 -15.539062 18.199219 -14 Z M 21 -14 C 20.914062 -17.105469 18.394531 -19.597656 15.398438 -19.597656 L 1.398438 -19.597656 L 1.398438 0 L 4.199219 0 L 4.199219 -5.597656 L 15.398438 -5.597656 C 18.535156 -5.597656 21 -8.230469 21 -11.199219 Z M 21 -14 "/></g></g></g><g fill="#63e6da" fill-opacity="1"><g transform="translate(176.158518, 237.933997)"><g><path d="M 4.199219 -16.796875 L 21 -16.796875 L 21 -19.597656 L 1.398438 -19.597656 L 1.398438 0 L 21 0 L 21 -2.800781 L 4.199219 -2.800781 L 4.199219 -8.398438 L 18.199219 -8.398438 L 18.199219 -11.199219 L 4.199219 -11.199219 Z M 4.199219 -16.796875 "/></g></g></g><g fill="#63e6da" fill-opacity="1"><g transform="translate(204.967455, 237.933997)"><g><path d="M 21 -19.597656 L 18.199219 -19.597656 L 18.199219 -4.757812 L 4.199219 -19.597656 L 1.398438 -19.597656 L 1.398438 0 L 4.199219 0 L 4.199219 -15.0625 L 18.199219 0 L 21 0 Z M 21 -19.597656 "/></g></g></g><g fill="#63e6da" fill-opacity="1"><g transform="translate(234.336317, 237.933997)"><g><path d="M 18.199219 -5.597656 C 18.199219 -4.058594 16.9375 -2.800781 15.398438 -2.800781 L 4.199219 -2.800781 L 4.199219 -16.796875 L 15.398438 -16.796875 C 16.9375 -16.796875 18.199219 -15.539062 18.199219 -14 Z M 21 -14 C 20.914062 -17.105469 18.394531 -19.597656 15.398438 -19.597656 L 1.398438 -19.597656 L 1.398438 0 L 15.398438 0 C 18.535156 0 21 -2.632812 21 -5.597656 Z M 21 -14 "/></g></g></g><g fill="#000000" fill-opacity="1"><g transform="translate(116.951716, 259.881444)"><g><path d="M 5.78125 -3.890625 L 4.578125 -7.234375 L 3.328125 -3.890625 Z M 10.03125 -0.734375 L 10.03125 0 L 5.625 0 L 5.625 -0.734375 L 6.859375 -0.890625 L 6.078125 -3.0625 L 3.03125 -3.0625 L 2.234375 -0.9375 L 3.453125 -0.75 L 3.453125 0 L 0.078125 0 L 0.078125 -0.75 L 1.40625 -0.9375 L 4.734375 -9.828125 L 5.640625 -9.828125 L 9.046875 -0.859375 Z M 10.03125 -0.734375 "/></g></g></g><g fill="#000000" fill-opacity="1"><g transform="translate(134.426708, 259.881444)"><g><path d="M 11.03125 -9.078125 L 9.625 -8.875 L 9.625 0.15625 L 8.875 0.15625 L 2.671875 -7.578125 L 2.671875 -0.9375 L 4.375 -0.75 L 4.375 0 L 0.390625 0 L 0.390625 -0.75 L 1.78125 -0.9375 L 1.78125 -8.6875 L 1.5625 -8.953125 L 0.546875 -9.0625 L 0.546875 -9.828125 L 3.5 -9.828125 L 8.765625 -3.1875 L 8.765625 -8.875 L 7.03125 -9.078125 L 7.03125 -9.828125 L 11.03125 -9.828125 Z M 11.03125 -9.078125 "/></g></g></g><g fill="#000000" fill-opacity="1"><g transform="translate(153.221697, 259.881444)"><g><path d="M 5.78125 -3.890625 L 4.578125 -7.234375 L 3.328125 -3.890625 Z M 10.03125 -0.734375 L 10.03125 0 L 5.625 0 L 5.625 -0.734375 L 6.859375 -0.890625 L 6.078125 -3.0625 L 3.03125 -3.0625 L 2.234375 -0.9375 L 3.453125 -0.75 L 3.453125 0 L 0.078125 0 L 0.078125 -0.75 L 1.40625 -0.9375 L 4.734375 -9.828125 L 5.640625 -9.828125 L 9.046875 -0.859375 Z M 10.03125 -0.734375 "/></g></g></g><g fill="#000000" fill-opacity="1"><g transform="translate(170.696692, 259.881444)"><g><path d="M 8.40625 -2.90625 L 8.25 0 L 0.484375 0 L 0.484375 -0.75 L 1.6875 -0.890625 C 1.707031 -1.503906 1.71875 -2.125 1.71875 -2.75 C 1.71875 -3.375 1.71875 -4.007812 1.71875 -4.65625 L 1.71875 -5.171875 C 1.71875 -5.804688 1.71875 -6.4375 1.71875 -7.0625 C 1.71875 -7.6875 1.707031 -8.3125 1.6875 -8.9375 L 0.484375 -9.078125 L 0.484375 -9.828125 L 5.234375 -9.828125 L 5.234375 -9.078125 L 3.9375 -8.9375 C 3.925781 -8.3125 3.921875 -7.6875 3.921875 -7.0625 C 3.921875 -6.445312 3.921875 -5.816406 3.921875 -5.171875 L 3.921875 -4.65625 C 3.921875 -4.007812 3.921875 -3.367188 3.921875 -2.734375 C 3.921875 -2.097656 3.925781 -1.460938 3.9375 -0.828125 L 6.796875 -0.828125 L 7.21875 -2.90625 Z M 8.40625 -2.90625 "/></g></g></g><g fill="#000000" fill-opacity="1"><g transform="translate(186.776681, 259.881444)"><g><path d="M 5.640625 -4.390625 L 5.640625 -3.375 C 5.640625 -3.113281 5.640625 -2.875 5.640625 -2.65625 C 5.640625 -2.445312 5.640625 -2.242188 5.640625 -2.046875 C 5.640625 -1.859375 5.640625 -1.671875 5.640625 -1.484375 C 5.648438 -1.304688 5.65625 -1.113281 5.65625 -0.90625 L 7.03125 -0.75 L 7.03125 0 L 2.0625 0 L 2.0625 -0.75 L 3.4375 -0.90625 C 3.445312 -1.300781 3.453125 -1.675781 3.453125 -2.03125 C 3.453125 -2.394531 3.453125 -2.84375 3.453125 -3.375 L 3.453125 -4.234375 L 1 -8.96875 L 0.03125 -9.078125 L 0.03125 -9.828125 L 4.640625 -9.828125 L 4.640625 -9.078125 L 3.453125 -8.9375 L 5.1875 -5.0625 L 7.078125 -8.90625 L 5.875 -9.078125 L 5.875 -9.828125 L 9.0625 -9.828125 L 9.0625 -9.078125 L 7.953125 -8.875 Z M 5.640625 -4.390625 "/></g></g></g><g fill="#000000" fill-opacity="1"><g transform="translate(203.246673, 259.881444)"><g><path d="M 5.953125 -9 C 5.929688 -8.375 5.921875 -7.742188 5.921875 -7.109375 C 5.921875 -6.472656 5.921875 -5.828125 5.921875 -5.171875 L 5.921875 -4.65625 C 5.921875 -4.019531 5.921875 -3.390625 5.921875 -2.765625 C 5.921875 -2.148438 5.929688 -1.53125 5.953125 -0.90625 L 7.3125 -0.75 L 7.3125 0 L 2.34375 0 L 2.34375 -0.75 L 3.703125 -0.90625 C 3.722656 -1.519531 3.734375 -2.140625 3.734375 -2.765625 C 3.734375 -3.390625 3.734375 -4.019531 3.734375 -4.65625 L 3.734375 -5.171875 C 3.734375 -5.816406 3.734375 -6.457031 3.734375 -7.09375 C 3.734375 -7.726562 3.722656 -8.363281 3.703125 -9 L 1.71875 -9 L 1.421875 -7.0625 L 0.296875 -7.0625 L 0.375 -9.828125 L 9.28125 -9.828125 L 9.359375 -7.0625 L 8.234375 -7.0625 L 7.9375 -9 Z M 5.953125 -9 "/></g></g></g><g fill="#000000" fill-opacity="1"><g transform="translate(220.286662, 259.881444)"><g><path d="M 3.9375 -8.9375 C 3.925781 -8.320312 3.921875 -7.703125 3.921875 -7.078125 C 3.921875 -6.453125 3.921875 -5.816406 3.921875 -5.171875 L 3.921875 -4.65625 C 3.921875 -4.019531 3.921875 -3.390625 3.921875 -2.765625 C 3.921875 -2.140625 3.925781 -1.515625 3.9375 -0.890625 L 5.15625 -0.75 L 5.15625 0 L 0.484375 0 L 0.484375 -0.75 L 1.6875 -0.890625 C 1.707031 -1.503906 1.71875 -2.125 1.71875 -2.75 C 1.71875 -3.375 1.71875 -4.007812 1.71875 -4.65625 L 1.71875 -5.171875 C 1.71875 -5.804688 1.71875 -6.4375 1.71875 -7.0625 C 1.71875 -7.6875 1.707031 -8.3125 1.6875 -8.9375 L 0.484375 -9.078125 L 0.484375 -9.828125 L 5.15625 -9.828125 L 5.15625 -9.078125 Z M 3.9375 -8.9375 "/></g></g></g><g fill="#000000" fill-opacity="1"><g transform="translate(233.306649, 259.881444)"><g><path d="M 8.8125 -2.765625 L 8.75 -0.484375 C 8.320312 -0.253906 7.851562 -0.0820312 7.34375 0.03125 C 6.832031 0.15625 6.296875 0.21875 5.734375 0.21875 C 4.960938 0.21875 4.253906 0.113281 3.609375 -0.09375 C 2.960938 -0.3125 2.40625 -0.632812 1.9375 -1.0625 C 1.46875 -1.488281 1.101562 -2.019531 0.84375 -2.65625 C 0.582031 -3.300781 0.453125 -4.050781 0.453125 -4.90625 C 0.453125 -5.757812 0.585938 -6.503906 0.859375 -7.140625 C 1.140625 -7.785156 1.519531 -8.320312 2 -8.75 C 2.476562 -9.1875 3.046875 -9.507812 3.703125 -9.71875 C 4.367188 -9.9375 5.09375 -10.046875 5.875 -10.046875 C 6.351562 -10.046875 6.8125 -9.992188 7.25 -9.890625 C 7.6875 -9.785156 8.132812 -9.601562 8.59375 -9.34375 L 8.65625 -7.0625 L 7.46875 -7.0625 L 7.171875 -8.953125 C 6.753906 -9.128906 6.328125 -9.21875 5.890625 -9.21875 C 5.453125 -9.21875 5.039062 -9.125 4.65625 -8.9375 C 4.269531 -8.757812 3.929688 -8.488281 3.640625 -8.125 C 3.359375 -7.757812 3.140625 -7.304688 2.984375 -6.765625 C 2.828125 -6.222656 2.75 -5.601562 2.75 -4.90625 C 2.75 -4.207031 2.828125 -3.585938 2.984375 -3.046875 C 3.140625 -2.515625 3.359375 -2.066406 3.640625 -1.703125 C 3.929688 -1.335938 4.269531 -1.0625 4.65625 -0.875 C 5.039062 -0.6875 5.453125 -0.59375 5.890625 -0.59375 C 6.359375 -0.59375 6.832031 -0.6875 7.3125 -0.875 L 7.609375 -2.765625 Z M 8.8125 -2.765625 "/></g></g></g><g fill="#000000" fill-opacity="1"><g transform="translate(250.016636, 259.881444)"><g><path d="M 4.8125 -5.828125 C 5.351562 -5.640625 5.800781 -5.429688 6.15625 -5.203125 C 6.519531 -4.984375 6.804688 -4.742188 7.015625 -4.484375 C 7.234375 -4.234375 7.390625 -3.96875 7.484375 -3.6875 C 7.585938 -3.414062 7.640625 -3.132812 7.640625 -2.84375 C 7.640625 -2.40625 7.539062 -2 7.34375 -1.625 C 7.15625 -1.257812 6.890625 -0.9375 6.546875 -0.65625 C 6.203125 -0.375 5.785156 -0.15625 5.296875 0 C 4.816406 0.144531 4.273438 0.21875 3.671875 0.21875 C 3.097656 0.21875 2.53125 0.148438 1.96875 0.015625 C 1.414062 -0.117188 0.9375 -0.3125 0.53125 -0.5625 L 0.609375 -2.765625 L 1.859375 -2.765625 L 2.15625 -0.953125 C 2.382812 -0.847656 2.617188 -0.757812 2.859375 -0.6875 C 3.097656 -0.625 3.363281 -0.59375 3.65625 -0.59375 C 4.289062 -0.59375 4.78125 -0.738281 5.125 -1.03125 C 5.476562 -1.320312 5.65625 -1.707031 5.65625 -2.1875 C 5.65625 -2.570312 5.53125 -2.875 5.28125 -3.09375 C 5.039062 -3.3125 4.648438 -3.519531 4.109375 -3.71875 L 3.375 -3.984375 C 2.488281 -4.304688 1.796875 -4.726562 1.296875 -5.25 C 0.804688 -5.78125 0.5625 -6.421875 0.5625 -7.171875 C 0.5625 -7.585938 0.640625 -7.96875 0.796875 -8.3125 C 0.960938 -8.664062 1.203125 -8.96875 1.515625 -9.21875 C 1.835938 -9.476562 2.21875 -9.679688 2.65625 -9.828125 C 3.101562 -9.972656 3.613281 -10.046875 4.1875 -10.046875 C 4.738281 -10.046875 5.253906 -9.976562 5.734375 -9.84375 C 6.222656 -9.707031 6.644531 -9.515625 7 -9.265625 L 6.90625 -7.21875 L 5.671875 -7.21875 L 5.375 -8.984375 C 5.164062 -9.066406 4.96875 -9.125 4.78125 -9.15625 C 4.59375 -9.195312 4.398438 -9.21875 4.203125 -9.21875 C 3.703125 -9.21875 3.28125 -9.085938 2.9375 -8.828125 C 2.601562 -8.566406 2.4375 -8.195312 2.4375 -7.71875 C 2.4375 -7.300781 2.570312 -6.972656 2.84375 -6.734375 C 3.125 -6.492188 3.519531 -6.285156 4.03125 -6.109375 Z M 4.8125 -5.828125 "/></g></g></g></svg>